<?xml version="1.0" standalone="no"?>
<!DOCTYPE svg PUBLIC "-//W3C//DTD SVG 20010904//EN"
 "http://www.w3.org/TR/2001/REC-SVG-20010904/DTD/svg10.dtd">
<svg version="1.0" xmlns="http://www.w3.org/2000/svg"
 width="300.000000pt" height="300.000000pt" viewBox="0 0 300.000000 300.000000"
 preserveAspectRatio="xMidYMid meet">
<metadata>
Created by potrace 1.10, written by Peter Selinger 2001-2011
</metadata>
<g transform="translate(0.000000,300.000000) scale(0.100000,-0.100000)"
fill="#000000" stroke="none">
<path d="M1233 1715 c-23 -5 -44 -12 -46 -15 -3 -3 -7 -56 -8 -118 l-3 -114
37 -21 37 -21 21 21 c21 20 21 20 59 2 56 -27 65 -24 105 27 41 55 42 64 13
127 -25 53 -32 54 -107 19 -34 -16 -36 -20 -36 -65 0 -42 -2 -47 -22 -47 -22
0 -23 4 -23 80 0 62 3 82 15 86 15 6 21 40 8 46 -5 2 -27 -1 -50 -7z m24 -26
c-24 -14 -26 -184 -1 -193 9 -3 21 -3 27 1 7 3 1 -5 -11 -19 -22 -25 -25 -25
-50 -11 -27 15 -27 16 -24 119 2 61 7 102 13 99 5 -4 19 1 31 9 12 9 24 13 27
10 3 -3 -2 -10 -12 -15z m177 -105 c20 -50 15 -73 -29 -114 -18 -17 -25 -18
-53 -8 -31 12 -32 14 -32 71 l0 58 43 19 c23 10 44 19 47 19 3 1 13 -20 24
-45z"/>
<path d="M1360 1546 c0 -40 4 -55 16 -60 36 -14 46 32 19 84 -23 45 -35 36
-35 -24z"/>
<path d="M1706 1714 c-14 -13 -22 -50 -17 -78 2 -10 -29 -46 -40 -46 -4 0 -12
14 -18 30 -11 34 -22 37 -55 15 -22 -15 -24 -14 -29 5 -7 27 -31 25 -51 -4
-11 -18 -14 -37 -9 -71 4 -30 1 -54 -7 -70 -11 -21 -11 -27 3 -43 10 -10 17
-26 17 -34 0 -54 46 -68 57 -18 3 17 12 30 19 30 22 0 74 80 74 112 0 50 25
26 30 -30 4 -35 12 -56 25 -66 29 -22 39 -20 63 14 26 35 27 46 6 54 -13 5
-15 15 -10 48 5 30 3 45 -9 58 -14 16 -14 20 2 48 14 25 15 32 4 46 -17 20
-35 20 -55 0z m44 -16 c0 -13 -29 -48 -41 -48 -4 0 -3 14 2 30 11 29 39 42 39
18z m-170 -85 c22 16 24 15 42 -18 10 -19 18 -41 18 -48 0 -25 -60 -98 -78
-95 -13 2 -18 -5 -20 -29 -4 -41 -22 -44 -22 -4 0 16 -7 36 -15 45 -11 10 -12
17 -4 22 8 4 10 28 6 70 -5 72 6 94 33 62 16 -20 18 -20 40 -5z m156 0 c4 -10
6 -42 5 -72 -3 -46 -1 -53 13 -48 22 9 20 -6 -3 -27 -30 -27 -51 2 -51 70 0
34 -4 53 -10 49 -15 -10 -12 3 7 25 21 25 29 25 39 3z"/>
<path d="M1557 1584 c-4 -4 -7 -24 -7 -45 0 -28 5 -41 20 -49 17 -9 22 -7 32
16 10 21 9 31 -2 52 -16 27 -32 37 -43 26z"/>
<path d="M1810 1625 c-21 -22 -22 -28 -10 -49 8 -16 10 -40 6 -71 -6 -39 -4
-49 11 -61 24 -18 41 -17 60 1 14 14 17 14 32 0 24 -20 34 -19 59 8 26 27 28
55 6 64 -13 5 -15 16 -9 59 5 45 4 54 -9 54 -9 0 -16 5 -16 10 0 16 -36 12
-50 -5 -12 -14 -15 -14 -30 0 -22 20 -22 19 -50 -10z m40 -2 c0 -5 5 -15 10
-23 7 -12 13 -11 34 9 38 36 53 17 48 -60 -4 -54 -3 -61 12 -56 22 9 20 -6 -3
-27 -17 -16 -20 -16 -35 0 -13 12 -17 31 -15 68 2 39 0 51 -11 51 -11 0 -15
-14 -16 -59 -1 -39 -6 -61 -15 -66 -17 -10 -56 15 -40 25 14 8 14 92 1 100 -6
4 -5 13 3 25 12 20 27 27 27 13z"/>
</g>
</svg>
